<svg width="64" height="64" viewBox="0 0 64 64" xmlns="http://www.w3.org/2000/svg">
  <!-- Pixel art katana - Founder's Sword -->
  <!-- Handle wrap (dark gold) -->
  <rect x="8" y="50" width="4" height="2" fill="#8B6914"/>
  <rect x="8" y="48" width="4" height="2" fill="#FFD700"/>
  <rect x="8" y="46" width="4" height="2" fill="#8B6914"/>
  <rect x="8" y="44" width="4" height="2" fill="#FFD700"/>
  <rect x="8" y="42" width="4" height="2" fill="#8B6914"/>

  <!-- Handle (dark wood/leather) -->
  <rect x="8" y="40" width="4" height="2" fill="#4A2511"/>
  <rect x="8" y="38" width="4" height="2" fill="#4A2511"/>

  <!-- Guard (tsuba - golden) -->
  <rect x="6" y="36" width="8" height="2" fill="#8B6914"/>
  <rect x="6" y="34" width="8" height="2" fill="#FFD700"/>
  <rect x="6" y="32" width="8" height="2" fill="#8B6914"/>

  <!-- Blade spine (darker metal) -->
  <rect x="10" y="30" width="2" height="2" fill="#B0B0B0"/>
  <rect x="11" y="28" width="2" height="2" fill="#B0B0B0"/>
  <rect x="12" y="26" width="2" height="2" fill="#B0B0B0"/>
  <rect x="13" y="24" width="2" height="2" fill="#B0B0B0"/>
  <rect x="14" y="22" width="2" height="2" fill="#B0B0B0"/>
  <rect x="15" y="20" width="2" height="2" fill="#B0B0B0"/>
  <rect x="16" y="18" width="2" height="2" fill="#B0B0B0"/>
  <rect x="17" y="16" width="2" height="2" fill="#B0B0B0"/>
  <rect x="18" y="14" width="2" height="2" fill="#B0B0B0"/>
  <rect x="19" y="12" width="2" height="2" fill="#B0B0B0"/>
  <rect x="20" y="10" width="2" height="2" fill="#B0B0B0"/>
  <rect x="21" y="8" width="2" height="2" fill="#B0B0B0"/>
  <rect x="22" y="6" width="2" height="2" fill="#B0B0B0"/>
  <rect x="23" y="4" width="2" height="2" fill="#B0B0B0"/>
  <rect x="24" y="2" width="2" height="2" fill="#B0B0B0"/>

  <!-- Blade edge (bright silver with golden tint for legendary) -->
  <rect x="8" y="30" width="2" height="2" fill="#F0F0F0"/>
  <rect x="9" y="28" width="2" height="2" fill="#F0F0F0"/>
  <rect x="10" y="26" width="2" height="2" fill="#FFFACD"/>
  <rect x="11" y="24" width="2" height="2" fill="#F0F0F0"/>
  <rect x="12" y="22" width="2" height="2" fill="#FFFACD"/>
  <rect x="13" y="20" width="2" height="2" fill="#F0F0F0"/>
  <rect x="14" y="18" width="2" height="2" fill="#F0F0F0"/>
  <rect x="15" y="16" width="2" height="2" fill="#FFFACD"/>
  <rect x="16" y="14" width="2" height="2" fill="#F0F0F0"/>
  <rect x="17" y="12" width="2" height="2" fill="#F0F0F0"/>
  <rect x="18" y="10" width="2" height="2" fill="#FFFACD"/>
  <rect x="19" y="8" width="2" height="2" fill="#F0F0F0"/>
  <rect x="20" y="6" width="2" height="2" fill="#F0F0F0"/>
  <rect x="21" y="4" width="2" height="2" fill="#FFFACD"/>
  <rect x="22" y="2" width="2" height="2" fill="#F0F0F0"/>

  <!-- Blade tip -->
  <rect x="23" y="2" width="2" height="2" fill="#F0F0F0"/>
  <rect x="24" y="0" width="2" height="2" fill="#FFFACD"/>

  <!-- Shine effects (white highlights) -->
  <rect x="11" y="26" width="1" height="1" fill="#FFFFFF"/>
  <rect x="13" y="20" width="1" height="1" fill="#FFFFFF"/>
  <rect x="16" y="14" width="1" height="1" fill="#FFFFFF"/>
  <rect x="19" y="8" width="1" height="1" fill="#FFFFFF"/>
  <rect x="22" y="2" width="1" height="1" fill="#FFFFFF"/>

  <!-- Pommel (end cap - golden) -->
  <rect x="7" y="52" width="6" height="2" fill="#FFD700"/>
  <rect x="8" y="54" width="4" height="2" fill="#DAA520"/>
</svg>
