<svg width="64" height="64" viewBox="0 0 64 64" xmlns="http://www.w3.org/2000/svg">
  <!-- Pixel art katana - Founder's Sword (centered and vertical with proper tip) -->

  <!-- Pommel (bottom end cap - golden) -->
  <rect x="28" y="58" width="8" height="2" fill="#DAA520"/>
  <rect x="28" y="56" width="8" height="2" fill="#FFD700"/>

  <!-- Handle wrap (dark gold alternating) -->
  <rect x="28" y="54" width="8" height="2" fill="#8B6914"/>
  <rect x="28" y="52" width="8" height="2" fill="#FFD700"/>
  <rect x="28" y="50" width="8" height="2" fill="#8B6914"/>
  <rect x="28" y="48" width="8" height="2" fill="#FFD700"/>
  <rect x="28" y="46" width="8" height="2" fill="#8B6914"/>
  <rect x="28" y="44" width="8" height="2" fill="#FFD700"/>
  <rect x="28" y="42" width="8" height="2" fill="#8B6914"/>

  <!-- Guard (tsuba - golden ornate) -->
  <rect x="24" y="40" width="16" height="2" fill="#FFD700"/>
  <rect x="24" y="38" width="16" height="2" fill="#DAA520"/>
  <rect x="26" y="36" width="12" height="2" fill="#FFD700"/>

  <!-- Blade (silver with golden highlights) -->
  <!-- Right edge (spine) - darker -->
  <rect x="34" y="34" width="2" height="2" fill="#B0B0B0"/>
  <rect x="34" y="32" width="2" height="2" fill="#B0B0B0"/>
  <rect x="34" y="30" width="2" height="2" fill="#B0B0B0"/>
  <rect x="34" y="28" width="2" height="2" fill="#B0B0B0"/>
  <rect x="34" y="26" width="2" height="2" fill="#B0B0B0"/>
  <rect x="34" y="24" width="2" height="2" fill="#B0B0B0"/>
  <rect x="34" y="22" width="2" height="2" fill="#B0B0B0"/>
  <rect x="34" y="20" width="2" height="2" fill="#B0B0B0"/>
  <rect x="34" y="18" width="2" height="2" fill="#B0B0B0"/>
  <rect x="34" y="16" width="2" height="2" fill="#B0B0B0"/>
  <rect x="34" y="14" width="2" height="2" fill="#B0B0B0"/>
  <rect x="34" y="12" width="2" height="2" fill="#B0B0B0"/>
  <rect x="34" y="10" width="2" height="2" fill="#B0B0B0"/>
  <rect x="34" y="8" width="2" height="2" fill="#B0B0B0"/>

  <!-- Center blade - bright silver/gold -->
  <rect x="32" y="34" width="2" height="2" fill="#F0F0F0"/>
  <rect x="32" y="32" width="2" height="2" fill="#FFFACD"/>
  <rect x="32" y="30" width="2" height="2" fill="#F0F0F0"/>
  <rect x="32" y="28" width="2" height="2" fill="#F0F0F0"/>
  <rect x="32" y="26" width="2" height="2" fill="#FFFACD"/>
  <rect x="32" y="24" width="2" height="2" fill="#F0F0F0"/>
  <rect x="32" y="22" width="2" height="2" fill="#F0F0F0"/>
  <rect x="32" y="20" width="2" height="2" fill="#FFFACD"/>
  <rect x="32" y="18" width="2" height="2" fill="#F0F0F0"/>
  <rect x="32" y="16" width="2" height="2" fill="#F0F0F0"/>
  <rect x="32" y="14" width="2" height="2" fill="#FFFACD"/>
  <rect x="32" y="12" width="2" height="2" fill="#F0F0F0"/>
  <rect x="32" y="10" width="2" height="2" fill="#F0F0F0"/>
  <rect x="32" y="8" width="2" height="2" fill="#FFFACD"/>
  <rect x="32" y="6" width="2" height="2" fill="#F0F0F0"/>

  <!-- Left edge (sharp edge) - brightest -->
  <rect x="30" y="34" width="2" height="2" fill="#FFFFFF"/>
  <rect x="30" y="32" width="2" height="2" fill="#F0F0F0"/>
  <rect x="30" y="30" width="2" height="2" fill="#FFFFFF"/>
  <rect x="30" y="28" width="2" height="2" fill="#F0F0F0"/>
  <rect x="30" y="26" width="2" height="2" fill="#FFFFFF"/>
  <rect x="30" y="24" width="2" height="2" fill="#F0F0F0"/>
  <rect x="30" y="22" width="2" height="2" fill="#FFFFFF"/>
  <rect x="30" y="20" width="2" height="2" fill="#F0F0F0"/>
  <rect x="30" y="18" width="2" height="2" fill="#FFFFFF"/>
  <rect x="30" y="16" width="2" height="2" fill="#F0F0F0"/>
  <rect x="30" y="14" width="2" height="2" fill="#FFFFFF"/>
  <rect x="30" y="12" width="2" height="2" fill="#F0F0F0"/>
  <rect x="30" y="10" width="2" height="2" fill="#FFFFFF"/>
  <rect x="30" y="8" width="2" height="2" fill="#F0F0F0"/>
  <rect x="30" y="6" width="2" height="2" fill="#FFFFFF"/>

  <!-- Blade tip (properly tapered point) -->
  <rect x="32" y="4" width="2" height="2" fill="#F0F0F0"/>
  <rect x="32" y="2" width="2" height="2" fill="#FFFFFF"/>

  <!-- Shine effects (bright highlights down the blade) -->
  <rect x="31" y="32" width="1" height="1" fill="#FFFFFF"/>
  <rect x="31" y="26" width="1" height="1" fill="#FFFFFF"/>
  <rect x="31" y="20" width="1" height="1" fill="#FFFFFF"/>
  <rect x="31" y="14" width="1" height="1" fill="#FFFFFF"/>
  <rect x="31" y="8" width="1" height="1" fill="#FFFFFF"/>
</svg>
