<svg width="64" height="64" viewBox="0 0 64 64" xmlns="http://www.w3.org/2000/svg">
  <!-- Pixel art katana - Founder's Sword (LONGER VERSION) -->

  <!-- Blade tip (sharp single pixel point) -->
  <rect x="31" y="2" width="2" height="2" fill="#FFFFFF"/>

  <!-- Blade taper (2 pixels wide) -->
  <rect x="31" y="4" width="2" height="2" fill="#F0F0F0"/>
  <rect x="31" y="6" width="2" height="2" fill="#FFFACD"/>

  <!-- Full blade (3 pixels wide - left, center, right) -->
  <!-- Right edge (spine) - darker silver -->
  <rect x="32" y="8" width="2" height="2" fill="#B0B0B0"/>
  <rect x="32" y="10" width="2" height="2" fill="#B0B0B0"/>
  <rect x="32" y="12" width="2" height="2" fill="#B0B0B0"/>
  <rect x="32" y="14" width="2" height="2" fill="#B0B0B0"/>
  <rect x="32" y="16" width="2" height="2" fill="#B0B0B0"/>
  <rect x="32" y="18" width="2" height="2" fill="#B0B0B0"/>
  <rect x="32" y="20" width="2" height="2" fill="#B0B0B0"/>
  <rect x="32" y="22" width="2" height="2" fill="#B0B0B0"/>
  <rect x="32" y="24" width="2" height="2" fill="#B0B0B0"/>
  <rect x="32" y="26" width="2" height="2" fill="#B0B0B0"/>
  <rect x="32" y="28" width="2" height="2" fill="#B0B0B0"/>
  <rect x="32" y="30" width="2" height="2" fill="#B0B0B0"/>
  <rect x="32" y="32" width="2" height="2" fill="#B0B0B0"/>
  <rect x="32" y="34" width="2" height="2" fill="#B0B0B0"/>

  <!-- Center blade - bright silver with golden highlights -->
  <rect x="30" y="8" width="2" height="2" fill="#FFFACD"/>
  <rect x="30" y="10" width="2" height="2" fill="#F0F0F0"/>
  <rect x="30" y="12" width="2" height="2" fill="#F0F0F0"/>
  <rect x="30" y="14" width="2" height="2" fill="#FFFACD"/>
  <rect x="30" y="16" width="2" height="2" fill="#F0F0F0"/>
  <rect x="30" y="18" width="2" height="2" fill="#F0F0F0"/>
  <rect x="30" y="20" width="2" height="2" fill="#FFFACD"/>
  <rect x="30" y="22" width="2" height="2" fill="#F0F0F0"/>
  <rect x="30" y="24" width="2" height="2" fill="#F0F0F0"/>
  <rect x="30" y="26" width="2" height="2" fill="#FFFACD"/>
  <rect x="30" y="28" width="2" height="2" fill="#F0F0F0"/>
  <rect x="30" y="30" width="2" height="2" fill="#F0F0F0"/>
  <rect x="30" y="32" width="2" height="2" fill="#FFFACD"/>
  <rect x="30" y="34" width="2" height="2" fill="#F0F0F0"/>

  <!-- Left edge (sharp edge) - brightest white -->
  <rect x="28" y="8" width="2" height="2" fill="#FFFFFF"/>
  <rect x="28" y="10" width="2" height="2" fill="#F0F0F0"/>
  <rect x="28" y="12" width="2" height="2" fill="#FFFFFF"/>
  <rect x="28" y="14" width="2" height="2" fill="#F0F0F0"/>
  <rect x="28" y="16" width="2" height="2" fill="#FFFFFF"/>
  <rect x="28" y="18" width="2" height="2" fill="#F0F0F0"/>
  <rect x="28" y="20" width="2" height="2" fill="#FFFFFF"/>
  <rect x="28" y="22" width="2" height="2" fill="#F0F0F0"/>
  <rect x="28" y="24" width="2" height="2" fill="#FFFFFF"/>
  <rect x="28" y="26" width="2" height="2" fill="#F0F0F0"/>
  <rect x="28" y="28" width="2" height="2" fill="#FFFFFF"/>
  <rect x="28" y="30" width="2" height="2" fill="#F0F0F0"/>
  <rect x="28" y="32" width="2" height="2" fill="#FFFFFF"/>
  <rect x="28" y="34" width="2" height="2" fill="#F0F0F0"/>

  <!-- Guard (tsuba - golden ornate) -->
  <rect x="26" y="36" width="12" height="2" fill="#FFD700"/>
  <rect x="24" y="38" width="16" height="2" fill="#DAA520"/>
  <rect x="24" y="40" width="16" height="2" fill="#FFD700"/>
  <rect x="26" y="42" width="12" height="2" fill="#DAA520"/>

  <!-- Handle wrap (dark gold alternating) -->
  <rect x="28" y="44" width="8" height="2" fill="#8B6914"/>
  <rect x="28" y="46" width="8" height="2" fill="#FFD700"/>
  <rect x="28" y="48" width="8" height="2" fill="#8B6914"/>
  <rect x="28" y="50" width="8" height="2" fill="#FFD700"/>
  <rect x="28" y="52" width="8" height="2" fill="#8B6914"/>
  <rect x="28" y="54" width="8" height="2" fill="#FFD700"/>
  <rect x="28" y="56" width="8" height="2" fill="#8B6914"/>
  <rect x="28" y="58" width="8" height="2" fill="#FFD700"/>

  <!-- Pommel (bottom end cap - golden) -->
  <rect x="28" y="60" width="8" height="2" fill="#DAA520"/>
  <rect x="27" y="62" width="10" height="2" fill="#FFD700"/>

  <!-- Shine effects (bright highlights down the blade) -->
  <rect x="29" y="10" width="1" height="1" fill="#FFFFFF"/>
  <rect x="29" y="16" width="1" height="1" fill="#FFFFFF"/>
  <rect x="29" y="22" width="1" height="1" fill="#FFFFFF"/>
  <rect x="29" y="28" width="1" height="1" fill="#FFFFFF"/>
</svg>
